<?xml version="1.0" standalone="no"?>
<!DOCTYPE svg PUBLIC "-//W3C//DTD SVG 20010904//EN"
 "http://www.w3.org/TR/2001/REC-SVG-20010904/DTD/svg10.dtd">
<svg version="1.0" xmlns="http://www.w3.org/2000/svg"
 width="2452.000000pt" height="607.000000pt" viewBox="0 0 2452.000000 607.000000"
 preserveAspectRatio="xMidYMid meet">

<g transform="translate(0.000000,607.000000) scale(0.100000,-0.100000)"
fill="#000000" stroke="none">
<path d="M12919 6005 c-61 -19 -127 -90 -170 -182 l-32 -70 -105 -22 c-307
-65 -582 -198 -742 -361 -89 -90 -133 -171 -156 -283 -27 -133 -1 -202 85
-228 102 -30 212 48 226 159 22 187 46 245 136 326 69 62 141 106 246 151 77
34 253 89 260 82 2 -2 -3 -75 -11 -163 -8 -87 -27 -360 -43 -606 l-27 -446
-79 1 c-75 2 -80 0 -103 -26 -33 -38 -33 -99 0 -132 26 -26 82 -56 137 -74 35
-11 37 -14 33 -49 -2 -20 -9 -91 -15 -157 -15 -166 -40 -253 -101 -360 -42
-72 -53 -100 -56 -145 -6 -104 52 -152 194 -158 67 -3 88 0 127 18 140 66 217
278 234 648 l6 142 56 0 c247 0 559 68 743 161 164 83 327 223 397 342 74 126
108 283 96 437 -24 287 -154 484 -407 615 -125 65 -181 86 -327 120 -141 33
-241 45 -365 45 l-102 0 -11 86 c-10 86 -34 137 -64 141 -8 1 -35 -5 -60 -12z
m272 -411 c278 -48 519 -207 623 -412 48 -94 69 -193 70 -332 1 -144 -18 -216
-83 -317 -132 -203 -380 -313 -708 -313 -56 0 -108 3 -117 6 -13 5 -16 25 -16
118 0 239 25 701 57 1074 l17 192 31 0 c17 0 74 -7 126 -16z"/>
<path d="M1699 5926 c-140 -38 -287 -180 -324 -315 l-17 -58 -106 -22 c-207
-44 -446 -135 -586 -225 -126 -80 -216 -191 -250 -305 -19 -65 -21 -166 -3
-200 39 -76 165 -95 237 -34 48 40 68 90 79 195 7 70 17 110 36 148 61 120
193 204 408 260 145 37 167 38 167 8 0 -33 -89 -1195 -96 -1245 -5 -42 -6 -43
-127 -114 -780 -460 -1114 -865 -1095 -1323 8 -188 78 -346 213 -481 124 -125
257 -175 458 -175 351 0 583 147 731 461 73 155 115 344 131 589 6 100 45 948
45 988 0 20 18 32 123 82 138 65 357 154 364 146 3 -2 -5 -42 -16 -88 -55
-224 -25 -501 71 -650 43 -68 128 -142 206 -180 54 -26 83 -33 151 -36 237
-13 360 79 540 404 l59 106 -1 -200 c-2 -189 -1 -202 19 -229 34 -46 122 -75
242 -81 100 -5 104 -4 168 28 108 53 229 178 359 370 l57 85 -6 -60 c-3 -33
-10 -120 -16 -193 -12 -145 -8 -162 38 -186 41 -21 176 -46 249 -46 55 0 67 4
88 25 17 16 25 35 25 57 0 18 2 105 4 193 4 175 18 245 63 323 122 213 408
572 455 572 8 0 23 -10 34 -21 17 -19 19 -38 18 -218 -1 -108 -11 -313 -22
-456 -25 -300 -29 -386 -18 -403 21 -34 161 -72 267 -72 49 0 64 4 83 23 22
22 23 30 30 273 8 286 21 425 43 468 52 102 415 406 485 406 10 0 25 -12 35
-26 23 -35 20 -193 -8 -499 -11 -126 -22 -298 -23 -382 -1 -139 1 -154 20
-180 49 -67 244 -104 353 -68 103 34 275 203 390 382 32 52 51 60 51 24 0 -10
19 -56 42 -102 30 -62 60 -103 112 -155 125 -124 261 -172 460 -161 268 15
477 119 664 329 62 70 184 242 258 364 l19 32 94 -88 95 -87 -40 -33 c-21 -18
-80 -75 -131 -126 -115 -117 -158 -196 -147 -269 8 -60 57 -117 112 -133 102
-31 301 -3 402 55 70 41 147 120 177 182 49 99 33 255 -37 365 -17 27 -29 54
-26 61 7 18 298 210 461 303 109 63 142 87 152 110 15 38 -6 72 -44 72 -26 0
-275 -154 -523 -325 l-125 -86 -53 58 c-127 140 -162 211 -162 331 0 183 255
388 356 287 23 -23 25 -31 19 -75 -6 -43 -4 -50 15 -60 32 -17 71 -8 94 23 16
22 21 43 21 91 0 53 -4 68 -28 99 -119 156 -419 134 -638 -46 -75 -62 -141
-155 -165 -231 -35 -112 -30 -228 17 -342 12 -30 10 -35 -64 -147 -203 -307
-353 -438 -552 -482 -208 -47 -374 28 -462 206 -31 62 -59 157 -49 167 3 2 45
8 93 13 181 18 357 74 478 154 90 59 187 162 223 236 41 83 57 183 42 256 -39
184 -277 274 -565 214 -339 -70 -552 -322 -605 -714 -10 -70 -18 -93 -58 -156
-151 -245 -338 -426 -399 -388 -26 17 -18 146 41 639 34 278 42 434 26 482
-25 78 -124 145 -225 154 -51 4 -69 0 -111 -21 -90 -46 -256 -190 -419 -365
-87 -94 -159 -170 -160 -169 -1 1 3 78 7 171 11 207 1 255 -63 310 -53 45 -97
66 -157 73 -161 19 -290 -109 -597 -589 l-110 -171 -3 48 c-7 100 16 253 52
348 41 109 55 182 58 295 3 73 1 85 -16 98 -54 39 -176 -5 -341 -124 -121 -87
-119 -81 -125 -378 l-6 -251 -44 -74 c-146 -248 -294 -424 -395 -470 -70 -32
-70 -29 -68 274 1 309 13 434 48 518 37 86 75 258 75 334 0 77 -19 130 -50
140 -54 17 -162 -30 -269 -116 l-61 -49 -67 52 c-38 28 -97 65 -133 82 -62 29
-71 31 -185 30 -95 0 -135 -5 -195 -23 -176 -54 -297 -143 -415 -306 -16 -22
-31 -43 -35 -47 -3 -4 -48 -18 -100 -32 -116 -30 -310 -97 -396 -136 l-64 -29
0 42 c0 78 69 1137 74 1146 3 5 23 12 43 16 69 12 177 71 225 123 92 98 83
225 -20 295 -67 46 -145 57 -233 33z m149 -148 c21 -21 14 -73 -14 -101 -25
-26 -132 -73 -141 -63 -3 3 0 29 7 58 16 65 64 118 107 118 16 0 34 -5 41 -12z
m5532 -1083 c50 -26 65 -67 65 -175 0 -82 -4 -103 -27 -152 -39 -84 -72 -123
-147 -171 -79 -52 -146 -80 -261 -107 -120 -28 -114 -31 -105 48 18 165 101
370 190 470 81 90 205 128 285 87z m-4392 -66 c46 -23 105 -61 130 -84 l45
-41 -11 -125 -11 -124 -95 -192 c-149 -298 -274 -470 -358 -488 -81 -18 -187
53 -237 158 -53 111 -65 176 -65 347 -1 137 2 162 22 220 47 129 144 254 253
323 77 49 106 57 178 53 51 -3 81 -13 149 -47z m-1764 -781 c-2 -18 -15 -190
-29 -383 -35 -488 -54 -695 -71 -800 -18 -106 -64 -249 -99 -310 -36 -60 -112
-128 -167 -149 -60 -23 -176 -19 -233 9 -92 45 -174 170 -216 330 -30 115 -38
360 -15 476 60 297 241 495 735 806 47 29 88 53 92 53 4 0 6 -15 3 -32z m7214
-81 c36 -59 52 -106 52 -151 0 -40 -37 -113 -66 -133 -58 -37 -163 -34 -196 7
-24 30 -23 91 3 143 20 38 154 187 169 187 3 0 20 -24 38 -53z"/>
<path d="M20785 5846 c-145 -66 -329 -322 -420 -585 -99 -289 -152 -613 -162
-1001 l-5 -225 -41 -65 c-115 -185 -264 -351 -349 -390 -67 -30 -68 -26 -68
244 0 259 14 448 36 510 8 23 24 65 34 94 10 29 29 100 41 159 19 92 20 115
11 166 -6 33 -19 68 -29 79 -38 42 -149 4 -279 -96 l-72 -55 -58 46 c-93 73
-195 117 -280 121 -88 5 -197 -12 -287 -43 -247 -86 -451 -336 -511 -628 -17
-81 -56 -156 -154 -297 -129 -185 -299 -336 -354 -315 -43 17 -53 111 -39 390
11 203 48 685 54 691 1 2 38 10 81 19 325 67 575 196 471 243 -44 20 -81 14
-233 -41 -149 -55 -289 -94 -298 -84 -3 3 8 144 25 314 51 511 42 597 -62 574
-69 -16 -154 -87 -192 -162 -16 -30 -79 -361 -106 -551 -6 -47 -15 -91 -18
-96 -4 -7 -29 -5 -71 5 -173 40 -265 -26 -175 -126 40 -43 94 -72 172 -91 49
-11 52 -13 47 -38 -2 -15 -11 -83 -18 -152 l-14 -125 -87 -155 c-196 -349
-351 -547 -470 -601 -36 -16 -42 -16 -55 -3 -24 24 -17 287 14 528 14 109 26
222 26 250 0 61 -28 113 -66 122 -14 4 -96 1 -181 -6 -92 -8 -158 -9 -163 -4
-6 6 1 31 18 64 36 73 42 169 14 232 -25 58 -74 113 -129 145 -37 21 -53 25
-102 21 -74 -5 -112 -32 -148 -106 -24 -48 -28 -69 -28 -137 1 -93 24 -152 87
-218 21 -22 37 -41 36 -42 -55 -41 -250 -120 -345 -140 l-33 -7 0 50 c0 69
-34 192 -72 265 -40 75 -135 179 -204 223 -141 90 -331 98 -505 21 -31 -14
-85 -28 -120 -32 -150 -16 -270 -75 -379 -185 -306 -310 -327 -805 -48 -1105
59 -64 131 -108 228 -141 84 -29 361 -26 485 4 123 31 256 97 332 166 151 137
231 294 280 545 8 43 9 45 73 68 149 56 343 155 395 203 19 17 24 17 75 4 30
-8 78 -14 107 -14 29 0 53 -4 53 -8 0 -5 -7 -31 -15 -58 -49 -166 -75 -470
-59 -692 8 -99 16 -148 27 -165 26 -40 116 -69 235 -75 100 -5 104 -4 169 28
48 24 93 58 154 119 103 103 173 196 288 385 l86 142 0 -261 c0 -272 7 -327
45 -365 33 -33 97 -45 240 -45 119 0 140 3 180 22 104 51 248 202 367 384 32
49 61 89 66 89 4 0 7 -12 7 -26 0 -14 7 -54 16 -88 60 -234 240 -386 457 -386
218 0 335 92 511 405 l56 100 0 -188 c0 -137 4 -197 14 -221 35 -84 297 -127
416 -69 99 49 207 159 337 341 l66 94 18 -84 c22 -105 42 -160 80 -219 37 -58
81 -93 162 -127 57 -24 73 -26 207 -27 180 0 263 20 435 105 274 135 427 318
493 589 l18 73 104 38 c58 21 131 49 164 64 32 14 59 26 60 26 0 0 -2 -75 -7
-167 -9 -206 6 -547 28 -619 12 -42 22 -55 48 -67 64 -30 124 -41 237 -41 94
-1 121 2 150 18 103 55 227 181 337 342 54 80 73 94 73 55 0 -10 19 -56 42
-102 30 -62 60 -103 112 -155 125 -124 260 -171 460 -161 204 11 376 76 531
200 233 188 539 692 523 861 -2 25 -8 32 -30 34 -31 4 -40 -9 -128 -173 -112
-211 -262 -418 -388 -537 -120 -113 -280 -174 -435 -166 -131 6 -251 90 -314
219 -31 62 -59 157 -49 167 3 2 45 8 93 13 256 25 454 109 599 254 82 82 128
166 145 267 34 204 -101 342 -349 356 -226 12 -440 -66 -589 -214 -132 -133
-205 -294 -233 -517 -8 -69 -16 -91 -57 -155 -134 -216 -292 -382 -374 -394
-61 -8 -75 129 -61 568 l10 280 80 155 c203 389 311 768 300 1054 -5 117 -31
184 -89 224 -30 20 -42 22 -106 18 -182 -13 -320 -163 -397 -429 -41 -141
-105 -570 -137 -916 l-13 -131 -95 -36 c-76 -28 -225 -75 -238 -75 -2 0 -3 19
-3 43 -1 124 -60 257 -156 346 -113 106 -240 148 -419 137 -55 -3 -115 -10
-134 -16 -19 -5 -36 -9 -37 -7 -1 1 11 47 27 102 71 245 103 459 97 656 -4
107 -9 148 -28 202 -43 125 -91 150 -195 103z m1796 -168 c25 -93 -18 -365
-92 -588 -41 -123 -119 -325 -139 -358 -9 -15 -9 -15 -10 2 0 28 29 350 40
441 30 236 66 408 102 479 29 57 37 66 64 66 19 0 25 -8 35 -42z m-1710 -74
c19 -23 24 -209 10 -305 -15 -93 -51 -241 -97 -389 -37 -119 -179 -504 -196
-530 -14 -22 -2 281 17 430 20 154 76 436 109 550 65 225 112 298 157 244z
m-5553 -870 c81 -33 131 -105 176 -254 19 -64 46 -214 46 -257 0 -2 -28 -3
-62 -3 -182 0 -352 108 -391 247 -21 74 -21 123 -1 171 17 42 59 90 89 102 33
14 103 11 143 -6z m8302 -39 c41 -21 62 -68 68 -151 14 -226 -136 -382 -438
-454 -120 -28 -114 -31 -105 48 22 202 128 432 240 518 69 52 175 70 235 39z
m-4342 -69 c48 -25 107 -64 131 -87 36 -35 42 -46 37 -69 -3 -16 -8 -70 -12
-121 -7 -91 -8 -95 -100 -278 -112 -226 -177 -332 -251 -412 -71 -76 -103 -93
-157 -85 -151 25 -244 191 -261 471 -13 195 41 345 171 484 53 57 92 87 146
115 69 36 77 38 140 33 54 -5 85 -15 156 -51z m1885 -3 c55 -27 97 -81 128
-162 23 -60 54 -219 45 -229 -12 -12 -185 21 -248 48 -119 49 -177 109 -198
204 -19 85 17 147 95 164 55 13 121 4 178 -25z m-6315 -34 c-15 -39 -21 -78
-22 -144 -1 -82 2 -95 29 -144 56 -101 181 -189 326 -228 47 -13 101 -17 207
-16 164 0 153 10 126 -110 -35 -160 -137 -312 -245 -365 -100 -48 -265 -55
-350 -14 -160 78 -259 320 -246 600 10 205 56 343 150 439 22 24 42 41 44 40
1 -2 -7 -28 -19 -58z m5929 -384 c97 -96 281 -159 452 -153 l100 3 -6 -30
c-11 -64 -36 -142 -66 -203 -74 -151 -254 -267 -432 -279 -61 -4 -74 -2 -105
19 -73 48 -111 170 -131 419 -12 141 -11 148 8 175 11 16 37 60 58 98 l38 69
18 -35 c10 -19 40 -56 66 -83z"/>
<path d="M9134 5780 c-48 -15 -82 -55 -90 -107 -8 -53 3 -367 17 -498 16 -152
30 -175 106 -175 78 0 101 40 164 291 83 333 84 434 5 473 -44 22 -155 30
-202 16z"/>
<path d="M10100 4925 c-142 -32 -301 -139 -379 -255 -58 -87 -76 -153 -76
-276 0 -94 2 -104 35 -170 27 -55 60 -94 163 -196 l128 -127 -38 -32 c-21 -18
-79 -74 -130 -125 -115 -117 -158 -196 -147 -269 8 -60 57 -117 112 -133 102
-31 301 -3 402 55 68 40 147 120 175 177 57 119 37 263 -58 406 l-16 25 167
112 c92 61 228 146 302 188 74 42 141 84 148 93 15 20 16 64 0 80 -7 7 -23 12
-37 12 -24 0 -281 -160 -521 -325 l-125 -86 -53 58 c-127 140 -162 211 -162
331 0 183 255 388 356 287 23 -23 25 -31 19 -75 -6 -43 -4 -50 15 -60 32 -17
71 -8 94 23 16 22 21 43 21 92 0 56 -4 68 -31 102 -69 85 -217 121 -364 88z
m-18 -1148 c34 -54 58 -120 58 -160 0 -41 -36 -114 -66 -134 -58 -37 -163 -34
-196 7 -24 30 -23 91 3 143 20 38 154 187 168 187 3 0 18 -20 33 -43z"/>
<path d="M8534 2432 c-172 -60 -358 -320 -458 -642 -80 -257 -125 -573 -126
-880 l-1 -145 -64 -95 c-127 -190 -262 -324 -338 -337 -35 -5 -36 -4 -43 33
-9 51 3 500 16 588 6 38 21 94 35 125 46 105 78 263 69 335 -10 71 -40 100
-97 91 -51 -9 -154 -61 -221 -113 l-50 -39 -85 57 c-108 72 -157 91 -251 97
-98 6 -248 -24 -344 -70 -202 -97 -357 -291 -416 -521 -21 -84 -27 -279 -11
-363 l8 -42 -23 15 c-33 22 -52 8 -109 -81 -41 -62 -58 -80 -100 -100 -130
-64 -326 -41 -860 102 -93 25 -172 47 -174 49 -2 2 14 38 36 81 91 178 169
452 223 790 l12 72 56 11 c259 51 539 156 676 254 141 101 234 238 257 381 32
197 -90 284 -397 285 -287 0 -502 -84 -675 -267 -85 -89 -147 -185 -190 -296
-29 -76 -63 -193 -73 -258 l-6 -36 -78 -13 c-90 -14 -130 -29 -156 -59 -33
-36 -9 -46 110 -46 l104 0 -5 -25 c-2 -14 -18 -101 -35 -193 -61 -334 -134
-613 -160 -611 -8 1 -55 9 -105 18 -143 27 -307 32 -385 12 -115 -29 -171 -96
-171 -201 0 -70 34 -133 97 -178 73 -52 126 -66 245 -67 156 0 300 41 405 115
l45 33 132 -51 c228 -86 498 -175 571 -188 39 -7 125 -13 191 -13 105 0 130 3
197 27 193 67 327 206 345 358 l6 52 22 -61 c30 -83 85 -154 161 -208 80 -57
162 -84 258 -84 213 0 341 97 505 385 l51 90 -6 -160 c-8 -190 1 -236 49 -265
50 -31 166 -53 260 -49 73 4 89 8 142 39 77 46 189 158 281 282 41 55 76 94
78 86 2 -7 11 -44 20 -81 58 -250 192 -339 490 -324 131 6 223 30 354 92 269
127 420 297 482 540 l18 70 123 46 c68 25 145 54 170 66 l46 20 -13 -56 c-19
-77 -17 -240 2 -320 55 -230 220 -404 423 -447 134 -28 372 -13 516 33 247 78
429 279 494 542 12 47 21 95 21 107 0 18 14 26 93 54 114 39 254 106 327 155
54 36 54 36 115 26 34 -6 81 -11 104 -11 49 0 48 12 12 -123 -11 -44 -26 -118
-32 -165 -19 -153 -10 -546 12 -566 2 -2 22 -13 44 -24 52 -26 140 -42 230
-42 60 0 82 5 132 30 105 53 224 176 361 374 56 80 62 86 62 59 0 -49 38 -181
67 -235 36 -66 127 -149 207 -188 50 -25 82 -33 145 -37 235 -16 371 77 540
373 l51 89 0 -175 c0 -120 4 -183 13 -200 27 -54 140 -90 284 -90 58 0 80 5
130 30 109 55 233 184 372 390 l71 104 0 -145 c0 -152 12 -265 33 -308 22 -48
76 -64 229 -69 l138 -5 64 32 c104 51 232 181 362 366 l49 71 0 -181 c0 -214
3 -221 92 -256 47 -18 79 -22 173 -23 104 -1 120 1 165 24 73 36 248 214 333
339 43 61 74 98 76 90 3 -8 13 -36 22 -64 62 -192 220 -342 403 -381 134 -28
372 -13 516 33 247 78 429 279 494 542 12 47 21 95 21 106 0 19 15 28 98 57
53 20 114 43 135 52 l37 16 0 -85 c0 -47 -9 -183 -20 -303 -11 -119 -22 -247
-26 -284 -5 -58 -3 -69 15 -87 31 -31 115 -52 232 -58 l105 -6 22 28 c20 25
22 39 22 164 0 164 20 286 56 348 57 97 328 411 423 489 70 58 100 57 119 -1
16 -46 12 -139 -19 -469 -22 -243 -25 -429 -6 -466 27 -54 140 -90 284 -90 91
0 164 35 263 127 193 179 481 641 514 825 7 39 -13 72 -38 62 -15 -6 -113
-154 -181 -274 -140 -248 -322 -472 -427 -524 -46 -23 -54 -24 -67 -12 -23 23
-16 160 24 467 20 151 39 339 42 419 5 141 5 146 -19 180 -33 48 -118 97 -183
105 -167 21 -304 -95 -644 -544 -72 -95 -131 -166 -131 -157 0 8 5 73 11 143
9 105 17 143 44 213 55 138 81 325 51 366 -23 31 -107 25 -182 -13 -101 -52
-239 -150 -253 -179 -14 -31 -30 -147 -31 -220 l0 -51 -92 -31 c-51 -17 -110
-35 -130 -41 l-37 -9 -6 56 c-17 148 -69 258 -169 358 -125 125 -256 170 -423
145 -49 -7 -115 -24 -148 -38 -33 -14 -91 -29 -129 -34 -198 -24 -343 -110
-462 -275 -64 -89 -113 -199 -134 -302 -16 -81 -26 -102 -84 -191 -127 -191
-247 -320 -338 -361 -65 -29 -68 -21 -68 189 0 292 20 464 68 576 39 93 72
233 72 308 0 161 -71 175 -255 52 -147 -99 -154 -107 -170 -205 -8 -47 -21
-158 -29 -247 -17 -178 -16 -175 -125 -336 -66 -98 -100 -140 -179 -221 -115
-118 -204 -158 -229 -103 -28 62 -24 275 13 722 22 269 9 244 134 271 207 46
393 116 435 163 25 29 11 53 -38 64 -30 7 -59 0 -184 -43 -131 -45 -194 -64
-283 -84 l-26 -5 29 257 c32 286 39 504 20 539 -7 12 -22 24 -32 28 -53 16
-160 -44 -214 -121 -31 -44 -50 -128 -107 -453 -16 -96 -31 -175 -33 -177 -2
-2 -21 1 -42 7 -22 6 -72 12 -112 12 -57 1 -76 -2 -92 -17 -64 -58 21 -154
167 -187 62 -15 59 4 33 -231 l-19 -168 -67 -112 c-144 -240 -297 -422 -398
-472 -82 -42 -82 -41 -79 237 3 291 15 414 48 487 34 73 74 242 74 308 0 69
-21 119 -54 128 -54 13 -207 -57 -288 -134 l-28 -26 -22 21 c-47 43 -154 104
-216 123 -77 24 -140 25 -254 5 -285 -49 -519 -268 -599 -561 -48 -173 -307
-521 -440 -590 -81 -41 -97 5 -80 231 6 83 20 213 31 290 28 198 27 235 -9
274 -33 36 -38 36 -211 20 -65 -6 -130 -9 -144 -5 l-25 6 26 46 c31 55 42 153
23 209 -15 44 -80 119 -124 142 -84 43 -159 34 -217 -27 -44 -46 -63 -109 -57
-192 5 -76 27 -125 81 -178 22 -22 38 -42 36 -44 -25 -23 -185 -87 -289 -115
l-69 -19 -6 56 c-17 148 -69 258 -169 358 -125 125 -256 170 -423 145 -49 -7
-115 -24 -148 -38 -33 -14 -91 -29 -129 -34 -202 -24 -359 -121 -471 -289 -39
-58 -43 -61 -140 -99 -100 -39 -261 -91 -283 -91 -6 0 -14 17 -17 38 -3 20
-10 59 -15 85 -32 159 -171 296 -345 342 -73 19 -230 19 -307 1 -32 -7 -58
-11 -58 -7 0 3 14 50 30 105 66 220 108 502 94 634 -9 94 -38 181 -74 225 -36
42 -52 44 -126 19z m-2755 -180 c48 -24 70 -58 81 -124 19 -119 -28 -257 -114
-336 -92 -85 -261 -164 -451 -212 -90 -23 -111 -26 -113 -14 -6 24 48 224 85
319 104 262 234 382 418 384 39 1 72 -5 94 -17z m2828 -72 c39 -115 -8 -375
-130 -720 -65 -184 -161 -413 -166 -394 -6 31 19 336 39 464 47 311 129 599
193 678 19 24 51 9 64 -28z m1985 -775 c25 -9 60 -30 78 -48 60 -58 119 -217
136 -366 l7 -61 -60 0 c-174 0 -344 102 -382 230 -32 109 11 220 99 253 28 10
76 7 122 -8z m6510 0 c25 -9 60 -30 78 -48 60 -58 119 -217 136 -366 l7 -61
-60 0 c-174 0 -344 102 -382 230 -32 109 11 220 99 253 28 10 76 7 122 -8z
m-10041 -107 c52 -26 109 -62 127 -81 l33 -34 -11 -109 c-12 -107 -13 -111
-91 -264 -176 -346 -301 -491 -409 -474 -138 22 -234 191 -247 434 -9 179 37
309 151 428 111 117 182 153 287 149 57 -2 82 -10 160 -49z m6423 4 c47 -24
104 -60 125 -80 38 -37 38 -37 30 -92 -4 -30 -8 -76 -8 -102 -1 -39 -16 -77
-81 -205 -177 -352 -308 -506 -411 -487 -124 24 -204 131 -240 319 -13 71 -12
242 2 301 33 138 161 298 289 363 58 29 72 32 136 29 60 -3 85 -10 158 -46z
m-4649 17 c92 -23 171 -129 201 -268 22 -103 20 -111 -20 -111 -95 0 -248 50
-320 105 -42 32 -86 116 -86 165 0 93 98 141 225 109z m1309 -45 c-26 -62 -30
-184 -9 -241 25 -66 107 -143 197 -187 113 -55 173 -68 334 -68 l141 0 -8 -52
c-29 -184 -140 -344 -277 -397 -45 -18 -78 -23 -157 -23 -90 -1 -106 2 -157
27 -110 54 -192 185 -225 361 -28 149 -2 371 58 488 20 40 108 142 116 135 2
-2 -4 -21 -13 -43z m6510 0 c-26 -62 -30 -184 -9 -241 25 -66 107 -143 197
-187 113 -55 173 -68 334 -68 l141 0 -8 -52 c-29 -184 -140 -344 -277 -397
-83 -33 -235 -33 -310 0 -108 48 -195 186 -229 365 -28 149 -2 371 58 488 20
40 108 142 116 135 2 -2 -4 -21 -13 -43z m-8159 -342 c35 -39 72 -64 130 -92
108 -52 170 -65 303 -64 l113 0 -6 -30 c-23 -115 -77 -224 -143 -289 -118
-115 -344 -184 -439 -134 -71 37 -116 182 -129 407 l-6 115 53 89 c46 77 55
86 64 70 5 -10 32 -42 60 -72z m-4170 -498 c61 -18 123 -37 139 -43 l28 -11
-24 -19 c-13 -11 -43 -29 -66 -41 -60 -31 -166 -30 -231 2 -56 28 -87 80 -72
121 17 44 56 42 226 -9z"/>
<path d="M15612 2154 c-97 -48 -118 -78 -115 -167 2 -89 19 -159 45 -187 18
-19 29 -22 77 -18 160 12 258 137 252 321 -1 17 -13 40 -30 58 -26 26 -36 29
-94 29 -54 0 -76 -6 -135 -36z"/>
</g>
</svg>
