<?xml version="1.0" standalone="no"?>
<!DOCTYPE svg PUBLIC "-//W3C//DTD SVG 20010904//EN"
 "http://www.w3.org/TR/2001/REC-SVG-20010904/DTD/svg10.dtd">
<svg version="1.0" xmlns="http://www.w3.org/2000/svg"
 width="2452.000000pt" height="2452.000000pt" viewBox="0 0 2452.000000 2452.000000"
 preserveAspectRatio="xMidYMid meet">
<metadata>
Created by potrace 1.14, written by Peter Selinger 2001-2017
</metadata>
<g transform="translate(0.000000,2452.000000) scale(0.100000,-0.100000)"
fill="#000000" stroke="none">
<path d="M12918 15224 c-61 -19 -135 -99 -173 -188 -26 -61 -31 -66 -64 -72
-86 -14 -253 -59 -341 -91 -354 -132 -578 -329 -625 -551 -14 -71 -12 -155 5
-188 16 -29 85 -64 126 -64 42 1 106 32 137 69 30 36 43 79 51 163 7 86 22
129 64 188 74 107 221 201 413 264 57 19 117 37 133 40 l28 7 -7 -63 c-3 -35
-8 -79 -10 -98 -2 -19 -7 -78 -10 -130 -3 -52 -8 -115 -10 -140 -3 -25 -7 -94
-10 -155 -3 -60 -8 -130 -10 -155 -2 -25 -8 -103 -11 -175 -4 -71 -8 -141 -9
-155 -2 -14 -3 -53 -4 -86 l-1 -62 -80 1 c-70 1 -82 -1 -105 -23 -19 -18 -25
-33 -25 -67 0 -55 27 -84 108 -119 80 -35 87 -40 86 -56 -1 -8 -4 -59 -8 -114
-15 -203 -41 -305 -106 -416 -52 -86 -63 -115 -61 -161 3 -99 75 -148 218
-148 115 0 189 55 248 186 58 127 92 327 94 553 l1 72 63 0 c241 0 553 68 739
161 216 108 384 275 449 448 68 182 57 448 -27 613 -84 167 -177 255 -367 350
-98 49 -162 71 -292 103 -137 33 -199 40 -346 40 l-126 0 -7 72 c-6 71 -31
153 -46 153 -5 0 -14 2 -22 4 -7 3 -34 -2 -60 -10z m289 -413 c167 -33 285
-85 422 -189 175 -133 265 -338 257 -587 -5 -165 -60 -281 -187 -398 -144
-134 -360 -201 -627 -196 l-114 2 7 269 c3 148 8 295 10 326 2 31 6 109 10
172 6 124 13 221 20 285 2 22 7 81 11 130 4 50 8 97 10 105 1 8 3 34 3 58 l1
42 40 0 c21 0 83 -9 137 -19z"/>
<path d="M1691 15144 c-139 -41 -279 -179 -316 -312 l-16 -58 -104 -22 c-142
-31 -328 -92 -442 -146 -280 -133 -412 -296 -413 -506 0 -86 37 -134 112 -146
117 -19 201 59 213 198 9 99 15 129 37 173 49 97 130 163 263 218 115 47 337
95 322 70 -3 -5 -8 -46 -11 -93 -9 -110 -14 -178 -21 -265 -8 -100 -14 -169
-20 -255 -3 -41 -8 -100 -10 -130 -3 -30 -7 -89 -10 -130 -3 -41 -8 -97 -10
-125 -2 -27 -7 -90 -10 -140 -11 -173 0 -155 -138 -236 -345 -204 -581 -381
-767 -575 -114 -119 -177 -205 -235 -322 -73 -144 -90 -221 -89 -397 0 -139 2
-155 28 -225 43 -114 102 -207 180 -285 124 -122 263 -176 457 -176 426 -1
700 232 813 691 37 153 48 257 61 570 3 74 8 167 10 205 2 39 7 144 11 235 3
91 8 190 10 220 1 30 3 74 4 97 l0 43 78 39 c68 34 217 98 373 160 l45 18 -24
-91 c-34 -125 -35 -359 -3 -479 48 -182 137 -295 287 -364 54 -25 70 -27 179
-28 115 0 123 1 188 32 111 53 213 174 332 395 l45 83 -6 -161 c-7 -173 4
-260 34 -287 39 -35 126 -60 230 -65 100 -5 104 -4 168 28 107 52 231 180 359
370 l57 85 -6 -70 c-33 -352 -34 -344 37 -374 55 -23 188 -44 256 -39 44 2 57
8 74 29 17 24 19 44 19 178 1 191 17 293 59 374 93 179 383 554 448 578 20 8
29 6 45 -11 20 -19 21 -32 21 -188 0 -170 -8 -326 -30 -552 -2 -25 -7 -92 -11
-150 -3 -58 -7 -115 -9 -128 -10 -62 28 -92 145 -117 175 -37 240 -13 240 87
3 402 20 615 55 673 53 92 348 345 444 382 43 17 44 16 62 -6 18 -22 22 -46
22 -141 0 -73 -12 -269 -22 -357 -16 -135 -26 -301 -26 -425 1 -141 10 -160
101 -197 69 -28 197 -39 260 -22 104 28 251 166 381 358 52 77 73 93 73 57 0
-57 98 -214 181 -288 184 -166 520 -182 804 -38 193 97 340 257 551 598 l19
32 94 -88 95 -88 -35 -28 c-76 -62 -226 -223 -252 -271 -63 -117 -27 -229 83
-262 93 -28 284 -5 384 46 104 53 197 164 217 260 20 97 -12 227 -80 328 l-20
30 152 101 c146 97 238 154 394 243 71 41 90 64 84 106 -2 11 -8 23 -15 27
-38 25 -87 -3 -476 -264 l-205 -138 -53 58 c-133 144 -169 224 -160 350 3 48
11 71 40 115 83 125 174 186 259 174 59 -8 74 -27 74 -95 0 -52 2 -57 26 -66
44 -15 75 -1 93 44 72 181 -121 319 -374 266 -199 -42 -394 -203 -446 -370
-35 -112 -30 -228 16 -341 12 -29 10 -35 -45 -120 -246 -383 -429 -520 -690
-520 -87 0 -107 3 -155 26 -117 54 -209 184 -235 330 -6 31 -4 36 12 36 50 -3
198 17 279 38 233 59 443 214 513 378 31 73 44 169 31 234 -29 140 -184 233
-386 233 -238 0 -448 -91 -588 -256 -115 -134 -175 -287 -200 -504 -16 -137
-304 -492 -423 -522 -41 -11 -47 12 -40 155 4 73 9 143 11 157 3 14 7 50 10
80 8 71 26 218 32 250 2 14 6 56 9 95 4 38 8 75 10 82 2 6 7 69 11 141 8 151
0 186 -54 238 -52 51 -107 76 -177 82 -51 4 -69 0 -111 -21 -113 -57 -266
-198 -537 -492 -42 -46 -46 -48 -41 -23 2 15 5 105 7 201 l2 173 -27 42 c-54
81 -162 131 -255 118 -94 -13 -185 -87 -307 -249 -85 -115 -206 -293 -290
-429 -27 -43 -52 -78 -57 -78 -4 0 -7 6 -4 13 2 6 6 59 10 117 8 140 14 176
40 235 64 147 92 390 49 422 -52 38 -172 -6 -337 -123 -125 -89 -129 -101
-131 -430 l-2 -201 -44 -74 c-54 -92 -132 -210 -179 -269 -58 -75 -172 -182
-215 -201 -71 -31 -71 -29 -69 274 2 310 13 435 48 518 37 86 75 258 75 334 0
77 -19 130 -50 140 -54 17 -162 -30 -269 -116 l-61 -49 -67 52 c-37 28 -97 65
-133 82 -62 29 -71 31 -185 30 -96 0 -135 -5 -195 -23 -177 -54 -308 -151
-416 -307 -35 -50 -38 -52 -122 -74 -130 -34 -373 -119 -445 -156 l-29 -16 6
139 c4 76 9 163 11 193 2 30 7 100 10 155 3 55 8 127 10 160 2 33 7 105 10
160 15 269 25 378 33 386 4 3 34 13 67 23 165 49 258 143 258 262 0 140 -157
227 -322 178z m157 -146 c21 -21 14 -73 -14 -101 -25 -26 -132 -73 -141 -63
-3 3 0 29 7 58 16 65 64 118 107 118 16 0 34 -5 41 -12z m5532 -1083 c50 -26
65 -67 65 -175 0 -85 -3 -102 -31 -161 -47 -100 -134 -175 -259 -226 -66 -26
-243 -69 -251 -60 -4 4 -2 45 5 92 35 253 167 480 307 530 52 19 128 19 164 0z
m-4396 -65 c47 -23 106 -60 132 -83 l46 -41 -7 -90 c-10 -141 -13 -155 -58
-251 -162 -346 -317 -570 -409 -590 -81 -18 -183 50 -237 160 -73 148 -93 417
-42 565 55 158 200 317 336 368 58 22 147 8 239 -38z m-1758 -772 c-3 -18 -8
-73 -11 -123 -3 -49 -8 -112 -10 -140 -3 -27 -9 -115 -15 -195 -15 -218 -27
-369 -35 -450 -2 -25 -7 -79 -10 -120 -10 -122 -34 -249 -66 -345 -49 -146
-113 -230 -209 -272 -46 -21 -67 -24 -130 -21 -89 4 -134 24 -195 85 -76 75
-140 235 -159 392 -12 100 -7 275 9 357 56 275 224 469 640 739 83 54 159 104
170 111 11 7 21 13 22 13 2 1 1 -14 -1 -31z m7211 -90 c60 -102 67 -172 23
-243 -34 -54 -80 -72 -173 -67 -75 5 -100 97 -49 185 25 43 147 177 162 177 3
0 20 -24 37 -52z"/>
<path d="M20807 15076 c-196 -70 -414 -421 -507 -818 -24 -102 -58 -284 -65
-348 -3 -25 -7 -61 -10 -80 -18 -154 -25 -276 -27 -445 l-1 -130 -40 -65
c-115 -188 -269 -359 -359 -398 -22 -9 -30 -8 -43 4 -17 17 -17 28 -16 269 2
301 17 458 50 524 25 49 73 243 77 312 5 102 -25 169 -76 169 -58 0 -174 -61
-275 -144 l-31 -25 -76 57 c-42 31 -110 70 -150 86 -69 27 -78 28 -183 22
-152 -8 -266 -45 -385 -126 -160 -109 -304 -334 -345 -539 -16 -85 -18 -88
-88 -201 -125 -200 -254 -346 -350 -394 -91 -46 -112 -14 -112 179 1 125 12
390 20 464 2 20 6 68 9 106 14 169 19 231 22 245 1 8 3 27 3 41 1 24 6 27 64
38 236 46 500 153 514 209 8 31 -7 43 -59 49 -35 4 -71 -5 -193 -49 -154 -56
-292 -95 -302 -85 -4 5 3 85 42 477 3 25 7 70 11 100 10 96 7 225 -6 264 -7
23 -21 41 -35 46 -46 17 -127 -21 -188 -90 -59 -65 -65 -80 -102 -285 -20
-114 -45 -263 -55 -337 -7 -48 -16 -91 -19 -97 -4 -6 -30 -4 -71 6 -77 18
-164 12 -191 -13 -54 -49 22 -154 136 -188 33 -9 69 -21 81 -26 l20 -8 -17
-152 c-10 -83 -22 -157 -27 -163 -5 -7 -22 -34 -37 -62 -15 -27 -50 -90 -77
-140 -154 -277 -330 -494 -440 -540 -33 -13 -37 -13 -50 2 -22 27 -16 286 12
498 41 303 40 330 -6 380 -28 30 -33 31 -295 9 -48 -4 -79 -3 -83 4 -3 5 6 34
21 62 72 138 24 296 -114 377 -37 21 -53 25 -102 21 -74 -5 -112 -32 -148
-106 -23 -48 -28 -69 -27 -137 0 -96 22 -152 83 -214 23 -23 41 -43 41 -45 0
-2 -42 -24 -92 -49 -94 -46 -262 -102 -279 -91 -5 3 -9 24 -9 48 0 58 -33 183
-66 248 -66 132 -191 243 -323 288 -106 35 -269 22 -392 -33 -31 -14 -85 -28
-120 -32 -145 -16 -261 -70 -364 -170 -164 -159 -255 -365 -257 -584 -2 -117
6 -170 37 -269 64 -201 206 -351 386 -410 43 -14 88 -17 229 -16 155 1 186 4
272 27 328 87 518 313 595 706 l8 43 95 37 c158 62 311 142 365 191 18 17 24
17 75 4 30 -8 78 -14 107 -14 58 0 58 0 43 -50 -20 -68 -50 -221 -57 -298 -16
-162 -8 -499 12 -569 13 -43 142 -83 266 -83 76 0 93 4 148 31 137 69 300 261
476 560 l50 86 -3 -221 c-3 -293 13 -392 67 -421 83 -42 321 -47 401 -8 105
52 248 202 372 391 34 50 62 92 62 92 1 0 3 -15 4 -32 9 -113 71 -256 145
-331 107 -110 209 -151 357 -145 125 6 192 32 271 105 65 60 162 199 229 328
44 85 56 103 46 70 -3 -11 -6 -97 -7 -190 -2 -204 5 -236 62 -265 94 -48 254
-65 338 -35 112 39 248 175 401 399 l33 49 18 -84 c41 -201 101 -287 241 -347
59 -25 72 -26 213 -26 176 1 251 17 402 89 290 137 453 327 521 604 l18 73
104 38 c58 21 131 49 164 64 32 14 59 26 60 26 0 0 -1 -39 -4 -87 -7 -116 -4
-502 4 -578 20 -179 31 -192 189 -222 106 -20 217 -14 273 15 98 50 218 173
331 339 54 79 73 93 73 54 0 -10 19 -56 42 -102 54 -109 154 -212 249 -257
107 -51 185 -65 324 -58 239 11 437 99 608 268 215 215 447 622 443 777 -1 42
-3 46 -27 49 -30 4 -49 -22 -129 -173 -104 -195 -279 -440 -388 -540 -116
-107 -250 -160 -407 -160 -90 0 -106 3 -158 29 -108 52 -198 172 -227 300 -13
59 -10 62 68 65 91 3 249 39 347 79 268 111 428 308 420 519 -8 215 -240 327
-554 268 -206 -40 -375 -152 -493 -330 -60 -90 -107 -232 -128 -388 -10 -70
-18 -93 -57 -155 -129 -208 -295 -384 -369 -392 -36 -4 -41 0 -55 48 -15 50
-18 446 -5 682 l6 114 99 201 c97 195 160 349 201 490 83 287 103 562 49 670
-14 28 -41 61 -60 73 -30 21 -43 23 -105 20 -203 -13 -351 -199 -423 -531 -19
-87 -57 -334 -77 -502 -3 -33 -8 -67 -9 -75 -2 -8 -6 -49 -11 -90 -4 -41 -8
-77 -9 -80 -1 -3 -5 -48 -9 -101 l-8 -96 -92 -35 c-50 -20 -118 -43 -151 -53
-33 -9 -68 -18 -77 -21 -15 -5 -18 2 -18 41 0 199 -141 388 -340 456 -80 27
-245 34 -341 14 -35 -8 -65 -13 -66 -12 -1 1 12 47 28 102 91 313 126 646 84
804 -43 165 -86 203 -188 167z m1772 -170 c18 -64 -2 -285 -39 -428 -48 -182
-198 -581 -200 -528 0 8 7 92 15 185 34 392 71 611 125 731 40 88 81 105 99
40z m-1712 -78 c6 -7 13 -26 17 -42 8 -31 9 -197 2 -231 -2 -11 -7 -40 -11
-65 -22 -142 -103 -413 -196 -657 -33 -87 -67 -177 -76 -200 -15 -42 -34 -60
-28 -25 2 9 6 80 9 157 6 162 26 325 62 515 75 399 165 620 221 548z m-5549
-873 c59 -25 109 -81 142 -161 33 -81 65 -208 74 -296 l6 -58 -63 0 c-81 1
-138 14 -215 52 -73 36 -151 116 -171 174 -20 59 -24 138 -11 179 14 42 64
103 94 115 34 14 104 11 144 -5z m8303 -41 c90 -46 92 -256 4 -389 -42 -62
-131 -130 -220 -167 -69 -29 -252 -74 -261 -65 -10 9 15 173 37 245 43 138
137 287 221 351 53 40 166 53 219 25z m-4343 -69 c110 -56 176 -118 168 -156
-3 -15 -8 -69 -12 -120 -7 -93 -8 -95 -105 -289 -105 -209 -191 -347 -261
-418 -59 -60 -91 -76 -142 -68 -152 25 -250 204 -261 480 -8 201 40 335 167
471 153 164 272 191 446 100z m1881 1 c91 -44 153 -168 175 -353 6 -50 6 -50
-104 -33 -163 26 -291 106 -327 205 -29 78 -21 138 24 177 45 40 154 42 232 4z
m-6311 -37 c-15 -39 -21 -78 -22 -144 -1 -82 2 -95 29 -144 56 -101 181 -189
326 -228 47 -13 102 -17 207 -17 164 0 152 10 126 -109 -19 -87 -82 -219 -129
-275 -78 -90 -201 -137 -340 -130 -160 9 -255 91 -322 276 -80 221 -68 515 29
692 27 49 107 144 115 137 1 -2 -7 -28 -19 -58z m5929 -385 c94 -94 276 -156
448 -153 l100 2 -3 -29 c-6 -53 -33 -137 -68 -205 -76 -151 -252 -265 -429
-276 -61 -4 -74 -2 -105 19 -78 52 -116 186 -136 470 -6 86 -4 100 13 125 11
15 37 59 58 97 l38 69 18 -36 c10 -19 40 -56 66 -83z"/>
<path d="M9134 15000 c-47 -15 -81 -54 -88 -104 -8 -53 1 -369 14 -496 17
-156 31 -180 105 -180 80 0 101 35 160 265 70 274 86 416 52 467 -32 46 -162
72 -243 48z"/>
<path d="M10082 14140 c-195 -52 -369 -206 -420 -370 -11 -36 -17 -89 -17
-156 0 -94 2 -104 35 -170 28 -55 61 -95 163 -196 l128 -128 -38 -31 c-102
-86 -222 -220 -254 -284 -31 -63 -32 -68 -20 -118 23 -101 86 -139 230 -138
206 1 383 98 459 251 49 99 31 254 -42 369 l-34 55 91 64 c115 79 314 203 431
268 98 54 124 87 103 132 -21 45 -65 26 -298 -125 -118 -76 -254 -167 -304
-201 l-90 -63 -55 62 c-139 156 -167 219 -158 348 3 47 11 70 40 114 83 125
174 186 260 174 60 -8 82 -37 74 -99 -6 -40 -4 -49 13 -57 33 -18 66 -12 92
15 20 22 24 35 24 94 0 61 -3 72 -31 107 -73 91 -229 125 -382 83z m5 -1152
c60 -102 67 -172 23 -244 -39 -61 -146 -88 -212 -53 -50 27 -52 101 -5 181 23
40 143 168 156 168 4 0 21 -24 38 -52z"/>
<path d="M8533 11651 c-117 -40 -239 -170 -346 -371 -78 -146 -128 -293 -172
-512 -45 -224 -64 -409 -69 -673 -2 -114 -4 -122 -31 -165 -126 -194 -274
-348 -363 -378 -31 -11 -33 -10 -43 16 -8 18 -9 112 -5 287 8 318 14 373 56
455 21 41 59 200 64 266 4 54 -9 111 -32 137 -13 15 -25 17 -62 12 -52 -8
-153 -58 -225 -113 l-50 -38 -85 57 c-148 100 -244 117 -428 80 -294 -61 -516
-286 -588 -596 -18 -78 -22 -274 -6 -341 l9 -41 -25 13 c-36 18 -51 7 -107
-81 -41 -64 -57 -79 -103 -102 -46 -22 -68 -26 -146 -27 -181 -1 -281 16 -669
120 -117 31 -213 57 -215 59 -2 2 19 50 47 106 88 182 161 442 206 743 8 48
15 90 17 91 2 2 57 15 123 30 157 35 330 93 457 154 234 111 365 253 404 441
24 116 3 189 -68 240 -71 52 -165 72 -333 71 -483 -2 -818 -285 -920 -777 -9
-43 -17 -79 -18 -81 -2 -1 -34 -7 -72 -13 -96 -15 -128 -26 -155 -55 -38 -40
-16 -50 106 -50 100 0 105 -1 100 -20 -3 -11 -12 -63 -21 -115 -45 -267 -133
-643 -161 -691 -2 -4 -25 -2 -51 3 -294 58 -472 49 -562 -28 -99 -85 -81 -243
36 -328 67 -48 137 -67 247 -67 150 1 287 39 389 109 29 19 57 35 62 35 6 0
100 -34 211 -76 382 -144 457 -164 644 -172 72 -3 125 0 168 10 224 53 389
204 409 376 l6 52 22 -62 c45 -124 160 -233 288 -273 110 -34 267 -18 362 37
88 52 192 180 285 350 18 33 34 62 36 64 2 2 1 -68 -2 -155 -7 -189 1 -235 49
-264 76 -47 277 -66 352 -35 99 42 226 161 335 313 36 50 67 91 70 91 3 1 11
-29 18 -66 35 -209 134 -313 327 -348 112 -20 320 5 445 55 303 119 494 315
559 570 l19 75 123 46 c68 25 145 54 170 66 l46 20 -14 -56 c-18 -78 -17 -237
2 -318 29 -117 90 -229 170 -308 81 -80 151 -119 256 -141 155 -32 404 -11
559 48 139 53 281 174 359 305 49 82 96 214 106 296 l7 55 92 32 c121 42 238
97 316 150 l64 42 55 -11 c30 -6 76 -11 103 -11 26 0 48 -2 48 -5 0 -3 -11
-48 -25 -100 -14 -53 -30 -138 -36 -188 -15 -123 -15 -437 0 -509 12 -54 15
-59 56 -77 60 -27 136 -41 223 -42 63 -1 82 3 135 29 108 54 227 175 365 376
56 80 62 86 62 59 0 -49 38 -181 67 -235 37 -67 133 -155 213 -192 109 -51
283 -46 395 12 92 47 193 165 285 330 25 45 49 82 53 82 5 0 6 -4 3 -9 -12
-18 -9 -317 3 -352 12 -39 66 -72 137 -85 22 -3 48 -8 59 -10 11 -2 51 -4 88
-5 58 -1 78 4 135 31 95 47 240 196 355 365 48 71 87 124 88 119 0 -5 0 -65
-1 -134 -1 -132 13 -267 31 -312 19 -47 108 -69 281 -70 80 -1 94 2 155 32 82
40 226 180 318 309 100 139 91 139 86 1 -5 -169 5 -247 34 -276 33 -33 116
-55 231 -61 95 -5 104 -4 155 22 114 57 228 171 357 359 37 53 64 83 66 75 3
-8 13 -36 22 -64 44 -137 157 -276 272 -334 89 -45 176 -62 309 -62 174 1 323
31 449 93 191 93 349 304 390 523 5 22 9 43 10 48 1 4 2 18 3 31 1 20 12 27
68 46 37 12 97 35 132 50 36 16 68 25 71 20 8 -13 -8 -278 -25 -420 -2 -19 -7
-71 -10 -115 -3 -44 -8 -106 -11 -137 -4 -48 -1 -61 15 -77 28 -28 114 -51
220 -59 152 -13 159 -3 162 193 1 181 19 283 60 351 33 54 124 167 237 294
267 298 319 303 307 28 -3 -70 -7 -135 -9 -145 -2 -10 -7 -56 -11 -103 -3 -47
-8 -96 -10 -110 -18 -130 -21 -365 -6 -413 19 -57 131 -97 277 -98 107 -1 178
35 294 150 244 241 553 786 485 855 -9 8 -22 13 -30 10 -15 -6 -110 -149 -165
-249 -36 -65 -49 -87 -134 -217 -101 -155 -230 -293 -310 -333 -71 -36 -81
-24 -78 97 1 51 4 104 6 118 3 14 8 50 11 80 6 57 23 196 30 240 4 29 22 180
30 257 3 29 5 91 6 138 1 102 -14 135 -84 182 -153 103 -307 51 -502 -168 -94
-105 -109 -124 -253 -314 l-144 -190 6 75 c16 191 20 219 47 286 40 102 59
182 65 278 6 76 4 86 -14 104 -46 46 -150 13 -329 -107 -112 -75 -122 -95
-128 -257 -2 -53 -5 -97 -7 -99 -8 -7 -127 -48 -188 -64 l-69 -19 -6 56 c-17
148 -69 258 -169 358 -81 81 -166 128 -264 146 -81 15 -222 -3 -307 -39 -33
-14 -91 -29 -129 -34 -149 -18 -269 -72 -364 -163 -126 -120 -218 -292 -238
-445 -15 -117 -280 -452 -407 -516 -80 -40 -80 -40 -73 260 3 138 8 268 11
290 14 94 29 154 53 210 63 150 90 341 57 405 -32 63 -96 51 -239 -45 -142
-95 -154 -109 -170 -195 -8 -41 -17 -109 -20 -150 -4 -41 -9 -93 -11 -115 -2
-22 -7 -66 -10 -98 -4 -38 -16 -75 -36 -108 -152 -259 -352 -469 -445 -469
-26 0 -34 5 -45 33 -22 52 -15 360 15 697 3 30 8 84 11 120 9 98 15 134 23
141 4 3 48 14 97 24 204 41 437 132 451 177 8 27 -14 47 -57 53 -25 3 -77 -10
-180 -46 -172 -59 -315 -98 -306 -82 2 4 8 45 11 90 4 46 9 91 10 100 2 10 7
50 10 88 8 78 15 145 21 190 11 88 17 230 11 268 -10 63 -38 91 -85 82 -112
-20 -204 -127 -225 -260 -2 -16 -18 -104 -34 -195 -17 -91 -33 -183 -36 -205
-13 -87 -17 -96 -36 -90 -80 25 -203 25 -232 -1 -62 -57 27 -152 171 -186 l53
-12 -6 -75 c-4 -42 -11 -114 -17 -161 -5 -47 -11 -99 -13 -116 -4 -37 -125
-244 -210 -359 -119 -161 -254 -281 -308 -273 -31 4 -36 47 -32 248 7 325 18
429 55 502 27 53 69 233 69 295 0 128 -53 159 -179 101 -49 -22 -148 -86 -175
-114 -16 -15 -19 -15 -39 4 -46 42 -153 103 -215 122 -160 50 -406 -5 -562
-125 -141 -109 -244 -261 -291 -431 -23 -83 -47 -128 -150 -279 -145 -214
-329 -372 -365 -314 -10 17 -13 174 -3 264 4 44 10 107 14 140 3 33 12 96 19
141 7 44 14 112 15 151 2 67 1 72 -29 102 -36 36 -39 36 -211 20 -66 -6 -131
-8 -144 -5 l-25 6 20 33 c43 70 53 164 25 235 -24 60 -112 138 -170 150 -131
28 -225 -63 -227 -218 0 -84 36 -162 101 -217 14 -11 24 -23 21 -25 -71 -51
-359 -151 -361 -125 -8 157 -60 285 -160 392 -109 116 -245 173 -389 161 -88
-7 -175 -28 -230 -56 -22 -11 -59 -20 -82 -20 -60 0 -181 -35 -253 -73 -74
-40 -177 -136 -230 -216 -39 -58 -43 -61 -140 -100 -114 -45 -274 -94 -290
-87 -6 2 -12 26 -14 52 -8 171 -127 324 -306 395 -53 21 -76 24 -205 24 -88 0
-158 -5 -177 -12 -18 -7 -33 -10 -33 -8 0 2 15 57 34 122 116 405 121 717 13
848 -33 40 -49 42 -124 16z m-2737 -187 c80 -59 92 -223 25 -353 -71 -137
-276 -255 -559 -320 l-84 -19 7 46 c10 68 62 244 96 322 103 243 237 355 416
348 54 -3 79 -9 99 -24z m2811 -64 c16 -44 14 -177 -3 -275 -27 -158 -108
-414 -208 -658 -93 -226 -87 -219 -81 -92 17 364 94 771 185 979 41 91 85 110
107 46z m1979 -775 c63 -18 109 -63 145 -140 33 -69 67 -195 76 -277 l6 -58
-65 0 c-153 0 -310 84 -363 195 -43 91 -25 211 38 259 51 38 89 43 163 21z
m6537 -8 c17 -8 45 -27 61 -43 55 -55 118 -226 132 -360 l6 -67 -83 6 c-225
14 -381 151 -367 323 5 64 41 123 89 147 38 19 108 16 162 -6z m-10071 -94
c47 -22 105 -58 128 -79 l42 -38 -6 -61 c-4 -33 -9 -82 -12 -110 -4 -34 -26
-90 -66 -170 -187 -372 -315 -525 -424 -508 -147 22 -241 187 -250 438 -4 128
10 204 57 297 52 103 188 230 284 266 17 6 59 10 95 9 53 -2 82 -10 152 -44z
m6430 -1 c94 -46 174 -112 165 -136 -3 -8 -9 -54 -13 -103 -6 -82 -11 -97 -69
-213 -80 -160 -94 -185 -172 -304 -109 -167 -190 -230 -269 -207 -155 44 -237
215 -236 490 1 182 91 349 246 456 118 81 208 85 348 17z m-4647 17 c109 -27
189 -155 212 -336 5 -42 5 -43 -25 -43 -59 0 -186 30 -246 58 -71 33 -122 80
-147 137 -61 134 41 226 206 184z m1309 -45 c-26 -61 -30 -184 -9 -240 37 -98
181 -202 330 -239 50 -13 108 -18 206 -18 l136 1 -8 -47 c-28 -176 -123 -327
-243 -386 -104 -51 -258 -56 -349 -12 -117 58 -198 196 -228 387 -21 139 7
355 61 461 21 40 109 143 117 136 2 -2 -4 -21 -13 -43z m6510 0 c-9 -21 -19
-76 -22 -121 -4 -75 -2 -87 22 -137 76 -155 296 -249 559 -239 l105 4 -13 -68
c-18 -92 -36 -143 -76 -209 -88 -145 -213 -209 -388 -199 -130 7 -222 71 -285
200 -58 118 -70 180 -70 340 0 156 14 229 64 330 25 52 107 151 117 142 2 -2
-4 -21 -13 -43z m-8210 -281 c36 -69 139 -146 243 -181 84 -29 159 -40 264
-37 l90 2 -6 -31 c-24 -121 -80 -230 -150 -295 -53 -48 -166 -113 -220 -126
-224 -53 -281 -6 -330 270 -3 17 -8 80 -11 140 l-6 110 52 88 c29 48 54 87 56
87 2 0 10 -12 18 -27z m-4099 -565 c72 -22 133 -43 137 -47 13 -11 -89 -71
-137 -80 -101 -19 -207 17 -238 80 -13 28 -15 43 -8 62 17 45 58 42 246 -15z"/>
<path d="M15704 11409 c-92 -16 -202 -92 -206 -142 -4 -60 4 -147 17 -193 18
-63 44 -79 115 -71 156 19 252 148 241 324 -3 59 -80 97 -167 82z"/>
</g>
</svg>
